<mxfile host="65bd71144e">
    <diagram id="nGjL2gJvoyCE46y_6FTz" name="Page-1">
        <mxGraphModel dx="898" dy="935" grid="1" gridSize="10" guides="1" tooltips="1" connect="1" arrows="1" fold="1" page="1" pageScale="1" pageWidth="827" pageHeight="1169" math="0" shadow="0">
            <root>
                <mxCell id="0"/>
                <mxCell id="1" parent="0"/>
                <mxCell id="10" style="edgeStyle=none;html=1;exitX=1;exitY=0.3333333333333333;exitDx=0;exitDy=0;exitPerimeter=0;entryX=0;entryY=0.5;entryDx=0;entryDy=0;opacity=90;fontSize=12;" edge="1" parent="1" source="2" target="4">
                    <mxGeometry relative="1" as="geometry"/>
                </mxCell>
                <mxCell id="11" style="edgeStyle=none;html=1;exitX=1;exitY=0.3333333333333333;exitDx=0;exitDy=0;exitPerimeter=0;entryX=0;entryY=0.5;entryDx=0;entryDy=0;opacity=90;fontSize=12;" edge="1" parent="1" source="2" target="5">
                    <mxGeometry relative="1" as="geometry"/>
                </mxCell>
                <mxCell id="3" value="" style="rounded=0;whiteSpace=wrap;html=1;rotation=90;fillStyle=auto;strokeColor=default;gradientColor=none;fillColor=none;strokeWidth=2;opacity=90;fontSize=12;direction=west;" vertex="1" parent="1">
                    <mxGeometry x="90.63" y="190" width="388.75" height="120" as="geometry"/>
                </mxCell>
                <mxCell id="13" style="edgeStyle=none;html=1;exitX=1;exitY=0.3333333333333333;exitDx=0;exitDy=0;exitPerimeter=0;entryX=0;entryY=0.5;entryDx=0;entryDy=0;opacity=90;fontSize=12;" edge="1" parent="1" source="2" target="6">
                    <mxGeometry relative="1" as="geometry"/>
                </mxCell>
                <mxCell id="14" style="edgeStyle=none;html=1;exitX=1;exitY=0.3333333333333333;exitDx=0;exitDy=0;exitPerimeter=0;entryX=0;entryY=0.5;entryDx=0;entryDy=0;opacity=90;fontSize=12;" edge="1" parent="1" source="2" target="7">
                    <mxGeometry relative="1" as="geometry"/>
                </mxCell>
                <mxCell id="15" style="edgeStyle=none;html=1;exitX=1;exitY=0.3333333333333333;exitDx=0;exitDy=0;exitPerimeter=0;entryX=0;entryY=0.5;entryDx=0;entryDy=0;opacity=90;fontSize=12;" edge="1" parent="1" source="2" target="8">
                    <mxGeometry relative="1" as="geometry"/>
                </mxCell>
                <mxCell id="16" style="edgeStyle=none;html=1;exitX=1;exitY=0.3333333333333333;exitDx=0;exitDy=0;exitPerimeter=0;entryX=0;entryY=0.5;entryDx=0;entryDy=0;opacity=90;fontSize=12;" edge="1" parent="1" source="2" target="9">
                    <mxGeometry relative="1" as="geometry"/>
                </mxCell>
                <mxCell id="2" value="&lt;p data-end=&quot;337&quot; data-start=&quot;302&quot;&gt;&lt;span data-end=&quot;337&quot; data-start=&quot;319&quot;&gt;&lt;b&gt;Dealer (Admin)&lt;/b&gt;&lt;/span&gt;&lt;/p&gt;&lt;br/&gt;&lt;p data-end=&quot;355&quot; data-start=&quot;339&quot;&gt;&lt;/p&gt;" style="shape=umlActor;verticalLabelPosition=bottom;verticalAlign=top;html=1;outlineConnect=0;fillColor=none;strokeWidth=2;opacity=90;" vertex="1" parent="1">
                    <mxGeometry x="20" y="160" width="90" height="180" as="geometry"/>
                </mxCell>
                <mxCell id="4" value="Login" style="ellipse;whiteSpace=wrap;html=1;strokeWidth=2;opacity=90;fontSize=12;" vertex="1" parent="1">
                    <mxGeometry x="240" y="62.49999999999999" width="90" height="60" as="geometry"/>
                </mxCell>
                <mxCell id="5" value="Add Product" style="ellipse;whiteSpace=wrap;html=1;strokeWidth=2;opacity=90;fontSize=12;" vertex="1" parent="1">
                    <mxGeometry x="240" y="125.5" width="90" height="60" as="geometry"/>
                </mxCell>
                <mxCell id="6" value="Update Product" style="ellipse;whiteSpace=wrap;html=1;strokeWidth=2;opacity=90;fontSize=12;" vertex="1" parent="1">
                    <mxGeometry x="240" y="188.5" width="90" height="60" as="geometry"/>
                </mxCell>
                <mxCell id="7" value="Remove Product" style="ellipse;whiteSpace=wrap;html=1;strokeWidth=2;opacity=90;fontSize=12;" vertex="1" parent="1">
                    <mxGeometry x="240" y="251.5" width="90" height="60" as="geometry"/>
                </mxCell>
                <mxCell id="8" value="View Orders" style="ellipse;whiteSpace=wrap;html=1;strokeWidth=2;opacity=90;fontSize=12;" vertex="1" parent="1">
                    <mxGeometry x="240" y="314.5" width="90" height="60" as="geometry"/>
                </mxCell>
                <mxCell id="9" value="Update Order Status" style="ellipse;whiteSpace=wrap;html=1;strokeWidth=2;opacity=90;fontSize=12;" vertex="1" parent="1">
                    <mxGeometry x="240" y="377.5" width="90" height="60" as="geometry"/>
                </mxCell>
            </root>
        </mxGraphModel>
    </diagram>
</mxfile>